<svg xmlns="http://www.w3.org/2000/svg" xmlns:xlink="http://www.w3.org/1999/xlink" fill-rule="evenodd" clip-rule="evenodd" image-rendering="optimizeQuality" shape-rendering="geometricPrecision" text-rendering="geometricPrecision" viewBox="0 0 2333.33 2333.33"><defs><linearGradient id="a" x1="313.39" x2="2020.04" y1="1399.16" y2="1399.16" gradientUnits="userSpaceOnUse"><stop offset="0" stop-color="#7959de"/><stop offset="1" stop-color="#006"/></linearGradient><linearGradient id="f" x1="313.39" x2="2020.04" y1="649.69" y2="649.69" gradientUnits="userSpaceOnUse" xlink:href="#a"/><linearGradient id="e" x1="1645.37" x2="1872.74" y1="535.79" y2="535.79" gradientUnits="userSpaceOnUse" xlink:href="#a"/><linearGradient id="c" x1="460.61" x2="687.98" y1="535.79" y2="535.79" gradientUnits="userSpaceOnUse" xlink:href="#a"/><linearGradient id="b" x1="407.54" x2="1883.71" y1="1362.02" y2="1362.02" gradientUnits="userSpaceOnUse" xlink:href="#a"/><linearGradient id="d" x1="1052.99" x2="1280.36" y1="535.79" y2="535.79" gradientUnits="userSpaceOnUse" xlink:href="#a"/></defs><path fill="url(#b)" fill-rule="nonzero" d="M424.79 1501.87c-13.75,5.12 -20.74,20.42 -15.63,34.17 5.12,13.75 20.42,20.74 34.17,15.63l589.29 -221.22 107.12 67.21 -127.76 74.65c-12.71,7.42 -17,23.74 -9.58,36.46 7.42,12.71 23.74,17 36.46,9.58l163.89 -95.75c1.34,-0.64 2.63,-1.39 3.86,-2.26l272.69 -159.32 362.37 257.32c11.96,8.51 28.57,5.72 37.08,-6.25 8.51,-11.96 5.72,-28.57 -6.25,-37.08l-374.75 -266.13c-8.39,-7 -20.58,-8.38 -30.55,-2.55l0 0.01 -21.69 12.67c-10.29,-11.79 -22.49,-21.83 -36.09,-29.63 -20.7,-11.88 -44.67,-18.67 -70.17,-18.67 -39,0 -74.31,15.81 -99.88,41.38 -25.56,25.56 -41.38,60.88 -41.38,99.88 0,12.67 1.71,25.04 4.91,36.86 0.92,3.41 1.97,6.77 3.15,10.09l-14.51 8.48 -140.01 -87.85c-7.02,-5.2 -16.44,-6.85 -25.23,-3.56l0.04 0.09 -601.56 225.8zm973.41 -255.23l-144.78 84.59c-1.36,-6.15 -2.08,-12.61 -2.08,-19.28 0,-24.28 9.84,-46.26 25.75,-62.17 15.91,-15.91 37.89,-25.75 62.17,-25.75 15.94,0 30.87,4.22 43.72,11.59 5.48,3.14 10.58,6.84 15.23,11.02z"/><path fill="url(#a)" d="M2020 843.59l-1706.67 0 0 977.38c0,36.81 15.04,70.26 39.28,94.5 24.23,24.23 57.68,39.28 94.49,39.28l1439.13 0c36.81,0 70.26,-15.04 94.5,-39.28 24.23,-24.23 39.28,-57.69 39.28,-94.5l0 -977.38zm-1490.75 154.48l1253.2 0c14.73,0 26.67,11.94 26.67,26.67l0 629.15c0,14.73 -11.94,26.67 -26.67,26.67l-1253.2 0c-14.73,0 -26.67,-11.94 -26.67,-26.67l0 -629.15c0,-14.73 11.94,-26.67 26.67,-26.67z"/><path fill="url(#c)" fill-rule="nonzero" d="M574.28 378.59c31.29,0 59.72,12.78 80.31,33.37 20.59,20.59 33.37,49.02 33.37,80.31l0 87.02c0,31.29 -12.78,59.72 -33.37,80.31 -20.59,20.59 -49.02,33.37 -80.31,33.37 -31.29,0 -59.72,-12.78 -80.31,-33.37 -20.59,-20.59 -33.37,-49.02 -33.37,-80.31l0 -87.02c0,-31.29 12.78,-59.72 33.37,-80.31 20.59,-20.59 49.02,-33.37 80.31,-33.37z"/><path fill="url(#d)" fill-rule="nonzero" d="M1166.67 378.59c31.29,0 59.72,12.78 80.31,33.37 20.59,20.59 33.37,49.02 33.37,80.31l0 87.02c0,31.29 -12.78,59.72 -33.37,80.31 -20.59,20.59 -49.02,33.37 -80.31,33.37 -31.29,0 -59.72,-12.78 -80.31,-33.37 -20.59,-20.59 -33.37,-49.02 -33.37,-80.31l0 -87.02c0,-31.29 12.78,-59.72 33.37,-80.31 20.59,-20.59 49.02,-33.37 80.31,-33.37z"/><path fill="url(#e)" fill-rule="nonzero" d="M1759.06 378.59c31.29,0 59.72,12.78 80.31,33.37 20.59,20.59 33.37,49.02 33.37,80.31l0 87.02c0,31.29 -12.78,59.72 -33.37,80.31 -20.59,20.59 -49.02,33.37 -80.31,33.37 -31.29,0 -59.72,-12.78 -80.31,-33.37 -20.59,-20.59 -33.37,-49.02 -33.37,-80.31l0 -87.02c0,-31.29 12.78,-59.72 33.37,-80.31 20.59,-20.59 49.02,-33.37 80.31,-33.37z"/><path fill="url(#f)" d="M313.33 790.25l1706.67 0 0 -147.36c0,-36.81 -15.04,-70.26 -39.28,-94.5 -19.8,-19.8 -45.75,-33.46 -74.65,-37.8l0 68.71c0,39.07 -15.53,76.27 -43.14,103.87 -27.61,27.61 -64.81,43.14 -103.88,43.14 -39.07,0 -76.27,-15.53 -103.88,-43.14 -27.61,-27.61 -43.14,-64.81 -43.14,-103.87l0 -70.19 -298.35 0 0 70.19c0,39.07 -15.53,76.27 -43.14,103.87 -27.61,27.61 -64.81,43.14 -103.88,43.14 -39.07,0 -76.28,-15.53 -103.88,-43.14 -27.61,-27.61 -43.14,-64.81 -43.14,-103.87l0 -70.19 -298.35 0 0 70.19c0,39.07 -15.53,76.27 -43.14,103.87 -27.61,27.61 -64.81,43.14 -103.88,43.14 -39.07,0 -76.28,-15.53 -103.88,-43.14 -27.61,-27.61 -43.14,-64.81 -43.14,-103.87l0 -68.71c-28.91,4.34 -54.86,18 -74.66,37.8 -24.23,24.23 -39.28,57.69 -39.28,94.5l0 147.36z"/></svg>